#!OML:ASF F:\VICON\USERDATA\INSTALL\rory3\rory3.ASF
:FULLY-SPECIFIED
:DEGREES
673
root 0.741618 15.7475 -4.24066 -17.879 -42.6376 1.27184
lowerback 21.6017 -0.80044 -4.34659
upperback 11.0147 -2.31395 -1.83626
thorax 0.027274 -1.46954 0.984032
lowerneck -4.33851 -17.663 -20.1756
upperneck 8.72108 -24.3195 16.4741
head 7.89368 -11.7674 5.53822
rclavicle 1.51076e-014 3.4191e-014
rhumerus -15.4178 16.1261 -91.4166
rradius 75.5216
rwrist 38.6158
rhand -29.5419 10.2564
rfingers 7.12502
rthumb -2.87506 -19.704
lclavicle 1.51076e-014 3.4191e-014
lhumerus -22.8073 -6.48624 82.3364
lradius 72.0241
lwrist -19.6179
lhand -14.6377 19.3702
lfingers 7.12502
lthumb 11.5142 49.034
rfemur -79.2081 -34.6135 34.4044
rtibia 137.573
rfoot 0.674081 -2.47843
rtoes 3.70192
lfemur -49.1595 40.5883 -11.2956
ltibia 116.823
lfoot 5.11683 -20.722
ltoes -19.601
674
root 0.737144 15.752 -4.23317 -17.9028 -42.6173 1.38596
lowerback 21.4524 -0.833654 -4.18506
upperback 11.0526 -2.32293 -2.0217
thorax 0.126661 -1.46419 0.692109
lowerneck -4.61209 -17.5661 -19.9308
upperneck 9.09147 -24.1913 16.3581
head 7.99058 -11.686 5.47054
rclavicle -5.30755e-014 1.82882e-014
rhumerus -15.4053 15.9051 -91.5955
rradius 75.5423
rwrist 38.7561
rhand -29.5304 10.2271
rfingers 7.12502
rthumb -2.86394 -19.7334
lclavicle -5.30755e-014 1.82882e-014
lhumerus -22.7217 -6.9884 82.113
lradius 71.9447
lwrist -19.4401
lhand -14.6175 19.5753
lfingers 7.12502
lthumb 11.5336 49.238
rfemur -79.1784 -34.7494 34.2372
rtibia 137.585
rfoot 0.841087 -2.12673
rtoes 3.11011
lfemur -49.1745 40.572 -11.4164
ltibia 116.788
lfoot 5.09336 -20.5541
ltoes -18.6249
675
root 0.732236 15.7536 -4.2286 -17.8574 -42.615 1.4182
lowerback 21.4672 -0.805324 -4.29018
upperback 10.9765 -2.30258 -1.92396
thorax 0.04469 -1.45705 0.853718
lowerneck -4.80924 -17.3817 -20.0272
upperneck 9.44602 -23.9079 16.1826
head 8.07566 -11.5466 5.46362
rclavicle 2.18663e-015 -5.56597e-015
rhumerus -15.5694 16.0136 -91.3893
rradius 75.6777
rwrist 38.5759
rhand -29.513 10.2951
rfingers 7.12502
rthumb -2.8471 -19.6656
lclavicle 2.18663e-015 -5.56597e-015
lhumerus -22.6359 -7.02038 82.301
lradius 71.5064
lwrist -19.4811
lhand -14.5605 19.5966
lfingers 7.12502
lthumb 11.5886 49.2561
rfemur -79.2088 -34.8621 34.2222
rtibia 137.601
rfoot 1.06355 -1.78288
rtoes 2.42558
lfemur -49.2815 40.5901 -11.5
ltibia 116.787
lfoot 4.99978 -20.5017
ltoes -18.6123
676
root 0.727349 15.753 -4.22602 -17.7848 -42.656 1.38916
lowerback 21.5577 -0.754986 -4.37638
upperback 10.8802 -2.25414 -1.78927
thorax -0.0975992 -1.43442 1.04117
lowerneck -4.95728 -17.1814 -20.24
upperneck 9.79497 -23.6097 16.0729
head 8.17215 -11.4042 5.49863
rclavicle -3.65764e-014 3.49861e-014
rhumerus -15.7976 16.1663 -91.1453
rradius 75.8522
rwrist 38.3024
rhand -29.4308 10.339
rfingers 7.12502
rthumb -2.76776 -19.6228
lclavicle -3.65764e-014 3.49861e-014
lhumerus -22.7387 -6.16802 82.7063
lradius 71.2731
lwrist -20.1924
lhand -14.3537 19.2248
lfingers 7.12502
lthumb 11.7881 48.873
rfemur -79.2562 -34.8639 34.3177
rtibia 137.612
rfoot 1.20326 -1.64367
rtoes 1.41086
lfemur -49.3558 40.6722 -11.4853
ltibia 116.819
lfoot 4.89049 -20.5846
ltoes -19.0603
677
root 0.723197 15.7466 -4.22132 -17.7467 -42.6482 1.35557
lowerback 21.6112 -0.712541 -4.35055
upperback 10.8647 -2.19593 -1.74981
thorax -0.143324 -1.40388 1.05873
lowerneck -5.30874 -17.0069 -20.223
upperneck 10.3115 -23.3429 15.8953
head 8.32709 -11.2612 5.45918
rclavicle -1.01977e-013 3.4191e-014
rhumerus -15.9037 16.0937 -91.0443
rradius 75.9786
rwrist 38.1127
rhand -29.3301 10.2804
rfingers 7.12502
rthumb -2.67048 -19.6826
lclavicle -1.01977e-013 3.4191e-014
lhumerus -22.521 -7.29124 82.6023
lradius 71.0317
lwrist -19.3976
lhand -14.9342 19.5655
lfingers 7.12502
lthumb 11.2282 49.245
rfemur -79.278 -34.8982 34.3685
rtibia 137.651
rfoot 1.20962 -1.59286
rtoes 0.527489
lfemur -49.4237 40.7321 -11.4474
ltibia 116.895
lfoot 4.83806 -20.6308
ltoes -18.947
678
root 0.718727 15.7402 -4.21445 -17.6582 -42.5784 1.29203
lowerback 21.5385 -0.685096 -4.2443
upperback 10.9155 -2.13486 -1.74345
thorax -0.0592561 -1.37169 0.989641
lowerneck -5.72111 -16.8469 -20.1589
upperneck 10.8081 -23.1084 15.8301
head 8.5033 -11.1238 5.43908
rclavicle -1.33782e-013 5.1684e-014
rhumerus -15.8784 15.8529 -90.9721
rradius 76.0619
rwrist 38.0477
rhand -29.2262 10.2326
rfingers 7.12502
rthumb -2.57017 -19.7317
lclavicle -1.33782e-013 5.1684e-014
lhumerus -22.2708 -7.93374 82.5501
lradius 70.8793
lwrist -19.0475
lhand -15.2725 19.3774
lfingers 7.12502
lthumb 10.9019 49.0744
rfemur -79.3208 -34.979 34.4053
rtibia 137.709
rfoot 1.19182 -1.53571
rtoes -0.0750022
lfemur -49.5097 40.6919 -11.4471
ltibia 116.976
lfoot 4.74134 -20.6414
ltoes -18.9577
679
root 0.714307 15.7385 -4.20619 -17.5979 -42.5886 1.29181
lowerback 21.419 -0.641797 -4.17221
upperback 10.9619 -2.05732 -1.7335
thorax 0.0443135 -1.33294 0.939227
lowerneck -6.00165 -16.6424 -20.1867
upperneck 11.1459 -22.8278 15.889
head 8.62489 -10.9708 5.49394
rclavicle 6.87795e-014 1.43125e-014
rhumerus -15.8454 15.6703 -90.8895
rradius 76.1242
rwrist 38.0795
rhand -29.2194 10.2004
rfingers 7.12502
rthumb -2.56358 -19.764
lclavicle 6.87795e-014 1.43125e-014
lhumerus -22.1006 -8.18621 82.5895
lradius 70.8299
lwrist -18.8543
lhand -15.3262 19.1308
lfingers 7.12502
lthumb 10.8502 48.8305
rfemur -79.3326 -34.9678 34.4214
rtibia 137.722
rfoot 1.19051 -1.48127
rtoes -0.448511
lfemur -49.5423 40.7427 -11.4799
ltibia 117.03
lfoot 4.58577 -20.6717
ltoes -19.3356
680
root 0.70769 15.7418 -4.19626 -17.7827 -42.6643 1.52479
lowerback 21.3201 -0.541096 -4.29138
upperback 11.019 -1.94488 -1.78581
thorax 0.15409 -1.28391 0.92369
lowerneck -6.41945 -16.368 -19.8311
upperneck 11.6092 -22.4215 15.6214
head 8.69884 -10.7553 5.41126
rclavicle 8.68689e-014 -3.57812e-014
rhumerus -15.8631 15.5191 -90.8801
rradius 76.187
rwrist 38.0947
rhand -29.2858 10.0555
rfingers 7.12502
rthumb -2.62768 -19.9081
lclavicle 8.68689e-014 -3.57812e-014
lhumerus -22.0264 -8.36365 82.6167
lradius 70.8289
lwrist -18.7965
lhand -15.298 19.1051
lfingers 7.12502
lthumb 10.8773 48.8034
rfemur -79.1969 -34.9848 34.1789
rtibia 137.743
rfoot 1.1585 -1.43584
rtoes -0.37833
lfemur -49.2915 40.8308 -11.5403
ltibia 117.004
lfoot 4.51835 -20.668
ltoes -19.2242
681
root 0.700809 15.7425 -4.18951 -17.9363 -42.656 1.78958
lowerback 21.2766 -0.362752 -4.72509
upperback 10.9874 -1.78501 -1.64309
thorax 0.157244 -1.22502 1.28709
lowerneck -7.12261 -16.0624 -19.2898
upperneck 12.4167 -21.8979 14.8904
head 8.8368 -10.4858 5.15184
rclavicle -2.76311e-014 2.78299e-014
rhumerus -16.0223 15.4347 -90.6119
rradius 76.2839
rwrist 38.0051
rhand -29.3485 9.92502
rfingers 7.12502
rthumb -2.68826 -20.0378
lclavicle -2.76311e-014 2.78299e-014
lhumerus -22.0794 -8.17038 82.9903
lradius 70.8093
lwrist -19.1789
lhand -15.0123 19.0937
lfingers 7.12502
lthumb 11.1529 48.7773
rfemur -79.2277 -35.1041 33.9341
rtibia 137.815
rfoot 1.18535 -1.48284
rtoes 0.228046
lfemur -49.2011 40.8176 -11.7334
ltibia 116.974
lfoot 4.57807 -20.585
ltoes -18.7091
682
root 0.697224 15.7409 -4.18425 -17.9077 -42.5771 1.8496
lowerback 21.4405 -0.181242 -5.43726
upperback 10.8246 -1.67307 -1.06182
thorax -0.0580501 -1.20471 2.29309
lowerneck -7.90971 -15.7356 -19.3426
upperneck 13.3233 -21.2181 13.9839
head 9.05077 -10.176 4.93171
rclavicle 8.26944e-014 -3.45885e-014
rhumerus -16.2124 15.8341 -89.7466
rradius 76.3955
rwrist 37.7648
rhand -29.2914 9.9044
rfingers 7.12502
rthumb -2.63309 -20.0591
lclavicle 8.26944e-014 -3.45885e-014
lhumerus -22.2917 -7.23144 84.0191
lradius 70.7815
lwrist -19.8836
lhand -14.5422 18.8092
lfingers 7.12502
lthumb 11.6062 48.4678
rfemur -79.3574 -35.2632 33.8745
rtibia 137.859
rfoot 1.2983 -1.45511
rtoes 0.578053
lfemur -49.3341 40.7013 -11.875
ltibia 116.983
lfoot 4.70551 -20.5231
ltoes -18.2623
